# xmcd
#
# Track frame offsets:
#	150
#	14337
#	32131
#	55054
#	74173
#	88849
#	112359
#	133874
#	146651
#	165759
#	180014
#	194780
#
# Disc length: 2854 seconds
#
# Revision: 1
# Processed by: cddbd v1.5PL3 Copyright (c) Steve Scherf et al.
# Submitted via: CDex 1.50Beta5
#
DISCID=b00b240c
DTITLE=Covre - This Is Cover!
DYEAR=1900
DGENRE=Alt-Folk
TTITLE0=コーヒー・ルンバ　井上陽水
TTITLE1=キューティーハニー　Go！Go！7188
TTITLE2=上を向いて歩こう　長渕剛
TTITLE3=甘く危険な香り　Neo
TTITLE4=さらば恋人　Ska☆Rockets
TTITLE5=静かなまぼろし　M-Flo
TTITLE6=心の旅　Dee　Chika
TTITLE7=夢見るシャンソン人形　Dolls
TTITLE8=夢で逢えたら　Deen＆原田知世
TTITLE9=ノー・ノー・ボーイ　高橋幸宏　鈴木慶一　サエキけんぞう　ムッシュかまやつ
TTITLE10=少年時代　沢田知可子
TTITLE11=夜霧よ今夜もありがとう　吉田拓郎
EXTD=
EXTT0=
EXTT1=
EXTT2=
EXTT3=
EXTT4=
EXTT5=
EXTT6=
EXTT7=
EXTT8=
EXTT9=
EXTT10=
EXTT11=
PLAYORDER=
